<?xml version="1.0" encoding="UTF-8" standalone="no"?>
<!DOCTYPE svg PUBLIC "-//W3C//DTD SVG 1.1//EN" "http://www.w3.org/Graphics/SVG/1.1/DTD/svg11.dtd">
<svg width="100%" height="100%" viewBox="0 0 1024 1024" version="1.1" xmlns="http://www.w3.org/2000/svg" xmlns:xlink="http://www.w3.org/1999/xlink" xml:space="preserve" xmlns:serif="http://www.serif.com/" style="fill-rule:evenodd;clip-rule:evenodd;stroke-linejoin:round;stroke-miterlimit:2;">
    <rect id="Artboard1" x="0" y="0" width="1024" height="1024" style="fill:none;"/>
    <clipPath id="_clip1">
        <rect id="Artboard11" serif:id="Artboard1" x="0" y="0" width="1024" height="1024"/>
    </clipPath>
    <g clip-path="url(#_clip1)">
        <path d="M464,1024L464,560L0,560L0,464L464,464L464,0L560,0L560,464L1024,464L1024,153.6C1024,68.826 955.174,-0 870.4,-0L153.6,-0C68.826,-0 -0,68.826 -0,153.6L-0,870.4C-0,955.174 68.826,1024 153.6,1024L464,1024ZM1024,870.4L1024,560L560,560L560,1024L870.4,1024C955.174,1024 1024,955.174 1024,870.4ZM232,746.745L164.118,678.863L118.863,724.118L186.745,792L118.863,859.882L164.118,905.137L232,837.255L299.882,905.137L345.137,859.882L277.255,792L345.137,724.118L299.882,678.863L232,746.745ZM664,816.569L664,880.569L920,880.569L920,816.569L664,816.569ZM664,703.431L664,767.431L920,767.431L920,703.431L664,703.431ZM264,200L264,104L200,104L200,200L104,200L104,264L200,264L200,360L264,360L264,264L360,264L360,200L264,200ZM664,200L664,264L920,264L920,200L664,200Z" style="fill:rgb(128,128,128);"/>
    </g>
</svg>
